<svg width="84" height="83" xmlns="http://www.w3.org/2000/svg" xmlns:xlink="http://www.w3.org/1999/xlink" overflow="hidden"><defs><clipPath id="clip0"><rect x="444" y="398" width="84" height="83"/></clipPath></defs><g clip-path="url(#clip0)" transform="translate(-444 -398)"><path d="M28.7612 40.3821 41.4767 53.0975 54.1921 40.3821 55.0567 39.5175 53.8341 38.295 52.9696 39.1596 42.3559 49.7732C42.3526 49.7766 42.347 49.7765 42.3437 49.7731 42.3422 49.7715 42.3412 49.7694 42.3412 49.7671L42.3412 15.5625 40.6121 15.5625 40.6121 49.7671C40.612 49.7719 40.6081 49.7757 40.6033 49.7757 40.6011 49.7756 40.5989 49.7748 40.5974 49.7732L29.9837 39.1596 29.1192 38.295 27.8966 39.5175Z" transform="matrix(1.01205 0 0 1 444 398)"/><path d="M64.8438 65.7083 18.1562 65.7083 18.1562 48.4167 16.4271 48.4167 16.4271 67.4375 66.5729 67.4375 66.5729 48.4167 64.8438 48.4167 64.8438 65.7083Z" transform="matrix(1.01205 0 0 1 444 398)"/></g></svg>