<svg width="96" height="96" xmlns="http://www.w3.org/2000/svg" xmlns:xlink="http://www.w3.org/1999/xlink" overflow="hidden"><defs><clipPath id="clip0"><rect x="740" y="284" width="96" height="96"/></clipPath></defs><g clip-path="url(#clip0)" transform="translate(-740 -284)"><path d="M768.564 347.849 798.85 317.565C802.405 313.99 807.242 311.986 812.284 312L828.593 312C828.599 312 828.603 312.005 828.603 312.01 828.603 312.013 828.602 312.015 828.6 312.017L815.324 325.293C814.927 325.677 814.916 326.31 815.299 326.707 815.683 327.104 816.316 327.115 816.713 326.732 816.722 326.724 816.73 326.715 816.738 326.707L831.738 311.707C832.128 311.316 832.128 310.684 831.738 310.293L816.738 295.293C816.341 294.909 815.708 294.92 815.324 295.318 814.95 295.705 814.95 296.319 815.324 296.707L828.6 309.983C828.604 309.987 828.604 309.993 828.6 309.997 828.598 309.999 828.596 310 828.593 310L812.284 310C806.712 309.984 801.365 312.199 797.436 316.151L767.15 346.435C763.595 350.01 758.758 352.014 753.716 352L745 352C744.448 352 744 352.448 744 353 744 353.552 744.448 354 745 354L753.716 354C759.288 354.016 764.635 351.801 768.564 347.849Z"/><path d="M745 312 753.716 312C758.758 311.986 763.595 313.99 767.15 317.565L777.293 327.707C777.69 328.091 778.323 328.08 778.707 327.682 779.081 327.295 779.081 326.681 778.707 326.293L768.564 316.151C764.635 312.199 759.288 309.984 753.716 310L745 310C744.448 310 744 310.448 744 311 744 311.552 744.448 312 745 312Z"/><path d="M816.738 337.293C816.341 336.909 815.708 336.92 815.324 337.318 814.95 337.705 814.95 338.319 815.324 338.707L828.6 351.983C828.604 351.987 828.604 351.993 828.6 351.997 828.598 351.999 828.596 352 828.593 352L812.285 352C807.246 352 802.413 349.998 798.85 346.435L788.707 336.293C788.31 335.909 787.677 335.92 787.293 336.318 786.919 336.705 786.919 337.319 787.293 337.707L797.436 347.849C801.365 351.801 806.712 354.016 812.284 354L828.593 354C828.599 354 828.603 354.005 828.603 354.01 828.603 354.013 828.602 354.015 828.6 354.017L815.324 367.293C814.927 367.677 814.916 368.31 815.299 368.707 815.683 369.104 816.316 369.115 816.713 368.732 816.722 368.724 816.73 368.715 816.738 368.707L831.738 353.707C832.128 353.316 832.128 352.684 831.738 352.293Z"/></g></svg>