<svg width="96" height="96" xmlns="http://www.w3.org/2000/svg" xmlns:xlink="http://www.w3.org/1999/xlink" overflow="hidden"><defs><clipPath id="clip0"><rect x="947" y="70" width="96" height="96"/></clipPath></defs><g clip-path="url(#clip0)" transform="translate(-947 -70)"><path d="M995 80C974.007 79.9939 956.984 97.0071 956.978 118 956.972 138.993 973.985 156.016 994.978 156.022 1015.97 156.028 1032.99 139.015 1033 118.022 1033 118.018 1033 118.014 1033 118.01 1033.01 97.0287 1016.01 80.011 995.03 80 995.02 80 995.01 80 995 80ZM995 154.021C975.112 154.027 958.984 137.909 958.978 118.021 958.972 98.1327 975.09 82.0051 994.978 81.999 1014.87 81.9929 1030.99 98.1107 1031 117.999 1031 118.004 1031 118.008 1031 118.013 1030.98 137.889 1014.88 153.998 995 154.024Z"/><path d="M977 117 1012 117 1012 119 977 119Z"/></g></svg>