<svg width="93" height="93" xmlns="http://www.w3.org/2000/svg" xmlns:xlink="http://www.w3.org/1999/xlink" overflow="hidden"><defs><clipPath id="clip0"><rect x="199" y="393" width="93" height="93"/></clipPath></defs><g clip-path="url(#clip0)" transform="translate(-199 -393)"><path d="M261.969 408.277C256.34 408.277 250.27 411.823 245.5 421.288 240.731 411.825 234.659 408.277 229.031 408.277 220.257 408.277 212.562 416.899 212.562 425.163 212.562 445.506 245.5 470.694 245.5 470.694 245.5 470.694 278.438 445.506 278.438 425.163 278.438 416.9 270.742 408.277 261.969 408.277ZM245.5 468.221C239.702 463.538 214.5 442.196 214.5 425.163 214.652 421.33 216.226 417.691 218.914 414.954 221.501 412.064 225.155 410.352 229.031 410.215 234.735 410.215 239.832 414.345 243.77 422.159L245.5 425.593 247.23 422.159C251.168 414.345 256.265 410.215 261.969 410.215 269.302 410.215 276.5 417.619 276.5 425.163 276.5 442.196 251.298 463.538 245.5 468.221Z"/></g></svg>