<svg width="84" height="84" xmlns="http://www.w3.org/2000/svg" xmlns:xlink="http://www.w3.org/1999/xlink" overflow="hidden"><defs><clipPath id="clip0"><rect x="444" y="507" width="84" height="84"/></clipPath></defs><g clip-path="url(#clip0)" transform="translate(-444 -507)"><path d="M473.108 547.869 485.976 560.737 498.845 547.869 499.72 546.994 498.483 545.756 497.608 546.631 486.866 557.373C486.863 557.376 486.857 557.376 486.854 557.373 486.852 557.371 486.851 557.369 486.851 557.367L486.851 522.75 485.101 522.75 485.101 557.367C485.101 557.372 485.097 557.375 485.093 557.375 485.09 557.375 485.088 557.374 485.086 557.373L474.345 546.631 473.47 545.756 472.233 546.994Z" stroke="#00B050" stroke-width="0.874983"/><path d="M509.625 573.5 462.375 573.5 462.375 556 460.625 556 460.625 575.25 511.375 575.25 511.375 556 509.625 556 509.625 573.5Z" stroke="#00B050" stroke-width="0.874983"/></g></svg>