<svg width="93" height="94" xmlns="http://www.w3.org/2000/svg" xmlns:xlink="http://www.w3.org/1999/xlink" overflow="hidden"><defs><clipPath id="clip0"><rect x="199" y="509" width="93" height="94"/></clipPath></defs><g clip-path="url(#clip0)" transform="translate(-199 -509)"><path d="M62.9688 15.2772C57.3403 15.2772 51.2701 18.8228 46.5 28.2875 41.7308 18.8247 35.6587 15.2772 30.0312 15.2772 21.2573 15.2772 13.5625 23.8991 13.5625 32.1625 13.5625 52.5063 46.5 77.6937 46.5 77.6937 46.5 77.6937 79.4375 52.5063 79.4375 32.1625 79.4375 23.9 71.7418 15.2772 62.9688 15.2772ZM46.5 75.2205C40.702 70.5376 15.5 49.196 15.5 32.1625 15.6523 28.3295 17.2256 24.6905 19.9136 21.9538 22.5012 19.0636 26.1545 17.3523 30.0312 17.2147 35.7353 17.2147 40.8318 21.3454 44.7698 29.1594L46.5 32.5926 48.2302 29.1594C52.1682 21.3454 57.2647 17.2147 62.9688 17.2147 70.3022 17.2147 77.5 24.6188 77.5 32.1625 77.5 49.196 52.298 70.5376 46.5 75.2205Z" stroke="#FF0000" stroke-width="0.968714" transform="matrix(1 0 0 1.01075 199 509)"/></g></svg>