<svg width="84" height="84" xmlns="http://www.w3.org/2000/svg" xmlns:xlink="http://www.w3.org/1999/xlink" overflow="hidden"><defs><clipPath id="clip0"><rect x="335" y="509" width="84" height="84"/></clipPath></defs><g clip-path="url(#clip0)" transform="translate(-335 -509)"><path d="M377 517.75C358.631 517.745 343.736 532.631 343.731 551 343.725 569.369 358.612 584.264 376.981 584.269 395.35 584.275 410.245 569.388 410.25 551.019 410.25 551.016 410.25 551.012 410.25 551.009 410.26 532.65 395.385 517.76 377.026 517.75 377.018 517.75 377.009 517.75 377 517.75ZM377 582.518C359.598 582.524 345.486 568.421 345.481 551.018 345.475 533.616 359.578 519.504 376.981 519.499 394.383 519.494 408.495 533.597 408.5 550.999 408.5 551.003 408.5 551.007 408.5 551.011 408.483 568.403 394.391 582.498 377 582.521Z" stroke="#0070C0" stroke-width="0.874983"/><path d="M377.438 535.7 375.688 535.7 375.688 550.125 361.25 550.125 361.25 551.875 375.688 551.875 375.688 566.325 377.438 566.325 377.438 551.875 391.875 551.875 391.875 550.125 377.438 550.125 377.438 535.7Z" stroke="#0070C0" stroke-width="0.874983"/></g></svg>