<svg width="96" height="96" xmlns="http://www.w3.org/2000/svg" xmlns:xlink="http://www.w3.org/1999/xlink" overflow="hidden"><defs><clipPath id="clip0"><rect x="548" y="464" width="96" height="96"/></clipPath></defs><g clip-path="url(#clip0)" transform="translate(-548 -464)"><path d="M626.522 511.142C626.529 507.357 625.791 503.609 624.35 500.109 624.14 499.598 623.555 499.355 623.044 499.565 622.533 499.775 622.29 500.36 622.5 500.871 628.164 514.675 621.564 530.457 607.76 536.121 606.273 536.731 604.734 537.207 603.162 537.544 603.149 537.544 603.144 537.544 603.15 537.529L607.138 530.479C607.443 530.019 607.317 529.398 606.857 529.093 606.397 528.788 605.776 528.914 605.471 529.374 605.444 529.414 605.421 529.456 605.4 529.5L600.331 538.463C600.059 538.944 600.229 539.554 600.709 539.826 600.71 539.826 600.71 539.826 600.71 539.826L609.656 544.885C610.133 545.163 610.745 545.001 611.023 544.524 611.301 544.047 611.14 543.435 610.662 543.157 610.655 543.152 610.648 543.148 610.64 543.144L604.058 539.422C604.046 539.415 604.048 539.407 604.058 539.404 617.187 536.321 626.481 524.628 626.522 511.142Z"/><path d="M593.935 537.9C590.443 537.433 587.077 536.284 584.029 534.516 573.039 528.123 567.969 514.951 571.837 502.839 571.837 502.827 571.849 502.826 571.855 502.839L575.95 509.815C576.23 510.291 576.843 510.45 577.32 510.169 577.796 509.889 577.954 509.276 577.674 508.8L572.462 499.919C572.182 499.443 571.57 499.283 571.093 499.563 571.093 499.563 571.093 499.563 571.093 499.563L562.229 504.763C561.753 505.043 561.593 505.656 561.873 506.132 562.153 506.608 562.766 506.768 563.242 506.488L569.776 502.653C569.788 502.646 569.794 502.653 569.79 502.664 565.118 517.997 573.761 534.214 589.094 538.886 590.589 539.342 592.12 539.676 593.669 539.885 593.714 539.891 593.759 539.894 593.804 539.894 594.356 539.897 594.806 539.451 594.809 538.899 594.811 538.393 594.436 537.966 593.935 537.902Z"/><path d="M617.527 493.014C617.536 493.023 617.533 493.031 617.52 493.031L609.479 493.071C608.927 493.072 608.48 493.521 608.482 494.073 608.483 494.626 608.932 495.072 609.484 495.071L609.484 495.071 619.784 495.02C620.336 495.02 620.784 494.572 620.784 494.02L620.73 483.738C620.751 483.207 620.338 482.759 619.808 482.738 619.782 482.737 619.756 482.737 619.73 482.738 619.178 482.738 618.73 483.186 618.73 483.738 618.73 483.74 618.73 483.741 618.73 483.743L618.768 491.354C618.768 491.368 618.761 491.371 618.751 491.361 609.521 481.516 594.737 479.302 583.028 486.012 579.747 487.899 576.87 490.413 574.56 493.412 574.225 493.851 574.31 494.479 574.749 494.814 575.185 495.146 575.807 495.066 576.144 494.633 578.294 491.842 580.973 489.502 584.028 487.747 595.049 481.433 608.976 483.623 617.527 493.014Z"/></g></svg>