<svg width="202" height="180" xmlns="http://www.w3.org/2000/svg" xmlns:xlink="http://www.w3.org/1999/xlink" overflow="hidden"><defs><clipPath id="clip0"><rect x="1482" y="1067" width="202" height="180"/></clipPath><clipPath id="clip1"><rect x="1512" y="1091" width="142" height="140"/></clipPath><clipPath id="clip2"><rect x="1512" y="1091" width="142" height="140"/></clipPath><clipPath id="clip3"><rect x="1512" y="1091" width="142" height="140"/></clipPath></defs><g clip-path="url(#clip0)" transform="translate(-1482 -1067)"><g clip-path="url(#clip1)"><g clip-path="url(#clip2)"><g clip-path="url(#clip3)"><path d="M94.7916 22.9979C86.3187 22.9979 77.1808 28.3354 70 42.5833 62.8206 28.3383 53.6798 22.9979 45.2083 22.9979 32.0002 22.9979 20.4167 35.9771 20.4167 48.4166 20.4167 79.0416 70 116.958 70 116.958 70 116.958 119.583 79.0416 119.583 48.4166 119.583 35.9785 107.998 22.9979 94.7916 22.9979ZM70 113.235C61.2718 106.186 23.3333 74.0585 23.3333 48.4166 23.5626 42.6466 25.931 37.1685 29.9775 33.0487 33.8727 28.6979 39.3723 26.1218 45.2083 25.9146 53.795 25.9146 61.4672 32.1329 67.3954 43.8958L70 49.0641 72.6045 43.8958C78.5327 32.1329 86.2049 25.9146 94.7916 25.9146 105.831 25.9146 116.667 37.0606 116.667 48.4166 116.667 74.0585 78.7281 106.186 70 113.235Z" stroke="#FF0000" stroke-width="4.66666" fill="none" transform="matrix(1 0 0 1 1513 1091)"/></g></g></g></g></svg>