<svg width="615" height="675" xmlns="http://www.w3.org/2000/svg" xmlns:xlink="http://www.w3.org/1999/xlink" overflow="hidden"><defs><filter id="fx0" x="-10%" y="-10%" width="120%" height="120%" filterUnits="userSpaceOnUse" primitiveUnits="userSpaceOnUse"><feComponentTransfer color-interpolation-filters="sRGB"><feFuncR type="discrete" tableValues="0 0"/><feFuncG type="discrete" tableValues="0 0"/><feFuncB type="discrete" tableValues="0 0"/><feFuncA type="linear" slope="0.4" intercept="0"/></feComponentTransfer><feGaussianBlur stdDeviation="6.11111 6.11111"/></filter><clipPath id="clip1"><rect x="2728" y="544" width="615" height="675"/></clipPath><clipPath id="clip2"><rect x="-3" y="-3" width="623" height="685"/></clipPath><clipPath id="clip3"><rect x="0" y="0" width="617" height="677"/></clipPath></defs><g clip-path="url(#clip1)" transform="translate(-2728 -544)"><g clip-path="url(#clip2)" filter="url(#fx0)" transform="translate(2727 543)"><g clip-path="url(#clip3)"><path d="M30.2229 84.7226C30.2229 54.6231 55.0711 30.2226 85.7229 30.2226 116.375 30.2226 141.223 54.6231 141.223 84.7226 141.223 114.822 116.375 139.223 85.7229 139.223 55.0711 139.223 30.2229 114.822 30.2229 84.7226Z" stroke="#D0CECE" stroke-width="21" stroke-miterlimit="8" fill="none" fill-rule="evenodd"/><path d="M67.7229 84.7226C67.7229 75.3338 75.5579 67.7226 85.2229 67.7226 94.8879 67.7226 102.723 75.3338 102.723 84.7226 102.723 94.1115 94.8879 101.723 85.2229 101.723 75.5579 101.723 67.7229 94.1115 67.7229 84.7226Z" fill="#262626" fill-rule="evenodd"/><path d="M97.0488 151.424 128.009 137.411 285.053 484.389 254.093 498.402Z" stroke="#D0CECE" stroke-width="4.58333" stroke-miterlimit="8" fill="#FFFFFF" fill-rule="evenodd"/><path d="M254.912 498.976 267.538 469.718 470.473 557.291 457.846 586.55Z" stroke="#D0CECE" stroke-width="4.58333" stroke-miterlimit="8" fill="#FFFFFF" fill-rule="evenodd"/><path d="M456.835 596.762 477.008 550.589 556.278 585.222 536.105 631.395Z" stroke="#595959" stroke-width="1.14583" stroke-miterlimit="8" fill="#FFFFFF" fill-rule="evenodd"/><path d="M443.858 582.029 457.424 550.592 475.242 558.281 461.676 589.718Z" fill="#AFABAB" fill-rule="evenodd"/><path d="M522.065 638.222 553.469 565.45 596.223 583.899 564.819 656.672Z" stroke="#595959" stroke-width="1.14583" stroke-miterlimit="8" fill="#FFFFFF" fill-rule="evenodd"/><path d="M245.459 475.3 274.252 462.338 284.899 485.989 256.106 498.952Z" fill="#FFFFFF" fill-rule="evenodd"/></g></g><path d="M2747.5 618C2747.5 587.9 2772.35 563.5 2803 563.5 2833.65 563.5 2858.5 587.9 2858.5 618 2858.5 648.099 2833.65 672.5 2803 672.5 2772.35 672.5 2747.5 648.099 2747.5 618Z" stroke="#D0CECE" stroke-width="20.625" stroke-miterlimit="8" fill="none" fill-rule="evenodd"/><path d="M2785 618C2785 608.611 2792.83 601 2802.5 601 2812.17 601 2820 608.611 2820 618 2820 627.389 2812.17 635 2802.5 635 2792.83 635 2785 627.389 2785 618Z" fill="#262626" fill-rule="evenodd"/><path d="M2814.33 684.701 2845.29 670.688 3002.33 1017.67 2971.37 1031.68Z" stroke="#D0CECE" stroke-width="4.58333" stroke-miterlimit="8" fill="#FFFFFF" fill-rule="evenodd"/><path d="M2972.19 1032.25 2984.81 1002.99 3187.75 1090.57 3175.12 1119.83Z" stroke="#D0CECE" stroke-width="4.58333" stroke-miterlimit="8" fill="#FFFFFF" fill-rule="evenodd"/><path d="M3174.11 1130.04 3194.28 1083.87 3273.55 1118.5 3253.38 1164.67Z" stroke="#595959" stroke-width="1.14583" stroke-miterlimit="8" fill="#FFFFFF" fill-rule="evenodd"/><path d="M3161.14 1115.31 3174.7 1083.87 3192.52 1091.56 3178.95 1123Z" fill="#AFABAB" fill-rule="evenodd"/><path d="M3239.34 1171.5 3270.75 1098.73 3313.5 1117.18 3282.1 1189.95Z" stroke="#595959" stroke-width="1.14583" stroke-miterlimit="8" fill="#FFFFFF" fill-rule="evenodd"/><path d="M2962.74 1008.58 2991.53 995.615 3002.18 1019.27 2973.38 1032.23Z" fill="#FFFFFF" fill-rule="evenodd"/></g></svg>