<svg width="84" height="84" xmlns="http://www.w3.org/2000/svg" xmlns:xlink="http://www.w3.org/1999/xlink" overflow="hidden"><defs><clipPath id="clip0"><rect x="335" y="398" width="84" height="84"/></clipPath></defs><g clip-path="url(#clip0)" transform="translate(-335 -398)"><path d="M377 406.75C358.631 406.745 343.736 421.631 343.731 440 343.725 458.369 358.612 473.264 376.981 473.269 395.35 473.275 410.245 458.388 410.25 440.019 410.25 440.016 410.25 440.012 410.25 440.009 410.26 421.65 395.385 406.76 377.026 406.75 377.018 406.75 377.009 406.75 377 406.75ZM377 471.518C359.598 471.524 345.486 457.421 345.481 440.018 345.475 422.616 359.578 408.504 376.981 408.499 394.383 408.494 408.495 422.597 408.5 439.999 408.5 440.003 408.5 440.007 408.5 440.011 408.483 457.403 394.391 471.498 377 471.521Z"/><path d="M377.438 424.7 375.688 424.7 375.688 439.125 361.25 439.125 361.25 440.875 375.688 440.875 375.688 455.325 377.438 455.325 377.438 440.875 391.875 440.875 391.875 439.125 377.438 439.125 377.438 424.7Z"/></g></svg>