<svg width="96" height="96" xmlns="http://www.w3.org/2000/svg" xmlns:xlink="http://www.w3.org/1999/xlink" overflow="hidden"><defs><clipPath id="clip0"><rect x="257" y="232" width="96" height="96"/></clipPath></defs><g clip-path="url(#clip0)" transform="translate(-257 -232)"><path d="M267.937 307.994C267.972 308.006 268.008 308.015 268.045 308.021L330 308.021 343.6 278.813C344.571 276.786 343.715 274.356 341.689 273.385 341.283 273.191 340.847 273.065 340.4 273.013L336 273.013 336 264.013C335.993 261.807 334.206 260.02 332 260.013L302.28 260.013C302.099 260.013 301.921 259.959 301.77 259.859L291 252.706C290.342 252.281 289.583 252.039 288.8 252.006L270 252.006C267.794 252.013 266.007 253.8 266 256.006L266 306C266.003 307.078 266.859 307.96 267.937 307.994ZM340.293 275.011C341.421 275.211 342.173 276.288 341.973 277.416 341.942 277.589 341.889 277.759 341.815 277.919L341.802 277.944 341.791 277.969 328.731 306.015 328.722 306.021 270.1 306.021C270.095 306.021 270.09 306.016 270.09 306.011 270.09 306.009 270.091 306.008 270.091 306.007L282.43 276.019C282.718 275.411 283.327 275.02 284 275.011ZM268 256.006C268 254.901 268.895 254.006 270 254.006L288.8 254.006C289.213 254.04 289.61 254.18 289.953 254.411L300.663 261.52C301.142 261.838 301.705 262.008 302.28 262.008L332 262.008C333.105 262.008 334 262.903 334 264.008L334 273 285 273C284.947 273 284.9 273.009 284.844 273.011L284 273.011C282.534 273.018 281.207 273.877 280.6 275.211L268.019 305.785C268.017 305.79 268.012 305.793 268.006 305.791 268.003 305.79 268.001 305.788 268 305.785Z"/></g></svg>