<svg width="96" height="96" xmlns="http://www.w3.org/2000/svg" xmlns:xlink="http://www.w3.org/1999/xlink" overflow="hidden"><defs><clipPath id="clip0"><rect x="147" y="231" width="96" height="96"/></clipPath></defs><g clip-path="url(#clip0)" transform="translate(-147 -231)"><path d="M162 307.021 228 307.021C230.206 307.014 231.993 305.227 232 303.021L232 263.009C231.993 260.803 230.206 259.016 228 259.009L194 259.009 183 251.709C182.37 251.227 181.592 250.979 180.8 251.009L162 251.009C159.794 251.016 158.007 252.803 158 255.009L158 303.02C158.006 305.227 159.793 307.014 162 307.021ZM160 255.007C160 253.902 160.895 253.007 162 253.007L180.8 253.007C181.124 252.984 181.446 253.067 181.719 253.243L181.803 253.313 181.894 253.373 192.894 260.673 193.394 261.007 228 261.007C229.105 261.007 230 261.902 230 263.007L230 303.02C230 304.125 229.105 305.02 228 305.02L162 305.02C160.895 305.02 160 304.125 160 303.02Z"/></g></svg>