<svg xmlns="http://www.w3.org/2000/svg" viewBox="0 0 66.02 64.79"><defs><style>.cls-1{fill:#50dcef;stroke:#578da3;stroke-miterlimit:10;}</style></defs><title>资源 4</title><g id="图层_2" data-name="图层 2"><g id="图层_1-2" data-name="图层 1"><path class="cls-1" d="M24.76,44.41c-10,11.23-11.16,12.89-12,15.34-.07.29-.22.43-.36.43a.66.66,0,0,1-.36-.22L8.71,56.44c3.1-1.87,3.46-3,3.46-7.42V23.31H7.27a16.48,16.48,0,0,0-4.9.65L.93,21.37a44.88,44.88,0,0,0,6,.43h4.75l2.45-3.17,4.25,3.82a.74.74,0,0,1,.29.58.4.4,0,0,1-.22.36l-3,1.87V51.18l8.71-7.71ZM9.57.63c5.83,2.88,8.71,5.76,9.22,7.85a4.43,4.43,0,0,1,.14,1.37c0,2.09-1.15,3.67-2.38,3.67-.72,0-1.22-.5-1.66-3C14.39,7.76,13,4.74,9.14,1.21ZM54.29,18.06c.29.29.43.5.43.72s-.14.22-.5.22H30a14.73,14.73,0,0,0-4.82.79l-2-2.66c1.8.14,3.6.29,5.26.29H46.94l3-3.74ZM65.16,5.74c.22.22.36.36.36.5s-.14.29-.36.43L62.28,8.19V55.86c0,5-.22,5.62-5.76,8.28a1,1,0,0,1-.43.14c-.14,0-.22-.22-.29-.65-.29-2.66-2.16-3.89-9.87-6.26l.22-1.08C51.48,57.52,54.57,58,56.37,58c2.09,0,2.38-.72,2.38-1.66v-50H32.25a14.73,14.73,0,0,0-4.82.79l-2-2.66c1.8.14,3.6.29,5.26.29H57.89l2.59-3.31Zm-15,23c.29.22.43.36.43.5s-.14.22-.43.43L47.95,31v9.72c0,1.08.29,6.84.29,6.91,0,.86-.22,1.15-1.58,1.73a4.69,4.69,0,0,1-1.44.43c-.43,0-.5-.36-.5-.94v-4H31.1v4.68c0,.86-.22,1.3-1.44,1.8a4.21,4.21,0,0,1-1.44.43c-.5,0-.58-.36-.58-1.44,0-1.51.22-9.43.22-9.79V31.74c0-1.73-.07-5.18-.22-7.42l4.68,3.74h11l2.23-3Zm-5.4,14.47V29.65H31.1V43.26Z"/></g></g></svg>