<svg xmlns="http://www.w3.org/2000/svg" viewBox="0 0 64.95 63.94"><defs><style>.cls-1{fill:#b3b3b3;stroke:#000;stroke-miterlimit:10;stroke-width:0.25px;}</style></defs><title>资源 1</title><g id="图层_2" data-name="图层 2"><g id="图层_1-2" data-name="图层 1"><path class="cls-1" d="M24.07,43.94c-10,11.23-11.16,12.89-12,15.34-.07.29-.22.43-.36.43a.66.66,0,0,1-.36-.22L8,56c3.1-1.87,3.46-3,3.46-7.42V22.84H6.57a16.48,16.48,0,0,0-4.9.65L.23,20.9a44.88,44.88,0,0,0,6,.43H11l2.45-3.17L17.66,22a.74.74,0,0,1,.29.58.4.4,0,0,1-.22.36l-3,1.87V50.71L23.42,43ZM8.87.16C14.71,3,17.59,5.92,18.09,8a4.43,4.43,0,0,1,.14,1.37c0,2.09-1.15,3.67-2.38,3.67-.72,0-1.22-.5-1.66-3C13.7,7.29,12.33,4.26,8.44.73ZM53.59,17.58c.29.29.43.5.43.72s-.14.22-.5.22H29.32a14.73,14.73,0,0,0-4.82.79l-2-2.66c1.8.14,3.6.29,5.26.29H46.24l3-3.74ZM64.46,5.27c.22.22.36.36.36.5s-.14.29-.36.43L61.58,7.72V55.39c0,5-.22,5.62-5.76,8.28a1,1,0,0,1-.43.14c-.14,0-.22-.22-.29-.65-.29-2.66-2.16-3.89-9.87-6.26l.22-1.08c5.33,1.22,8.42,1.73,10.22,1.73,2.09,0,2.38-.72,2.38-1.66v-50H31.56a14.73,14.73,0,0,0-4.82.79L24.71,4c1.8.14,3.6.29,5.26.29H57.19L59.78,1Zm-15,23c.29.22.43.36.43.5s-.14.22-.43.43l-2.16,1.3v9.72c0,1.08.29,6.84.29,6.91,0,.86-.22,1.15-1.58,1.73a4.69,4.69,0,0,1-1.44.43c-.43,0-.5-.36-.5-.94v-4H30.4v4.68c0,.86-.22,1.3-1.44,1.8a4.21,4.21,0,0,1-1.44.43c-.5,0-.58-.36-.58-1.44,0-1.51.22-9.43.22-9.79V31.26c0-1.73-.07-5.18-.22-7.42l4.68,3.74h11l2.23-3ZM44,42.79V29.18H30.4V42.79Z"/></g></g></svg>