<svg width="83" height="83" xmlns="http://www.w3.org/2000/svg" xmlns:xlink="http://www.w3.org/1999/xlink" overflow="hidden"><defs><clipPath id="clip0"><rect x="581" y="398" width="83" height="83"/></clipPath></defs><g clip-path="url(#clip0)" transform="translate(-581 -398)"><path d="M644.547 417.021 641.175 420.393C651.896 431.114 651.896 448.578 641.175 459.299L644.547 462.671C657.17 450.134 657.17 429.644 644.547 417.021Z" fill="#AFABAB"/><path d="M637.717 423.765 634.345 427.136C641.348 434.14 641.348 445.466 634.345 452.555L637.717 455.927C646.622 447.022 646.622 432.67 637.717 423.765Z" fill="#AFABAB"/><path d="M631.059 430.681 627.688 434.053C630.973 437.339 630.973 442.612 627.688 445.898L631.059 449.27C636.247 444.082 636.247 435.782 631.059 430.681Z" fill="#AFABAB"/><path d="M584.026 427.915 584.026 451.085 600.799 451.085 622.5 468.896 622.5 410.104 600.799 427.915Z" fill="#AFABAB"/></g></svg>