<svg width="96" height="96" xmlns="http://www.w3.org/2000/svg" xmlns:xlink="http://www.w3.org/1999/xlink" overflow="hidden"><defs><clipPath id="clip0"><rect x="416" y="232" width="96" height="96"/></clipPath></defs><g clip-path="url(#clip0)" transform="translate(-416 -232)"><path d="M498 255 487.941 255C487.373 250.062 482.909 246.52 477.971 247.088 473.815 247.566 470.537 250.844 470.059 255L430 255 430 257 470.059 257C470.627 261.938 475.091 265.48 480.029 264.912 484.185 264.434 487.463 261.156 487.941 257L498 257ZM479 263C475.134 263 472 259.866 472 256 472 252.134 475.134 249 479 249 482.866 249 486 252.134 486 256 485.996 259.864 482.864 262.996 479 263Z"/><path d="M498 305 498 303 483.941 303C483.373 298.062 478.909 294.52 473.971 295.088 469.815 295.566 466.537 298.844 466.059 303L430 303 430 305 466.059 305C466.627 309.938 471.091 313.48 476.029 312.912 480.185 312.434 483.463 309.156 483.941 305ZM475 311C471.134 311 468 307.866 468 304 468 300.134 471.134 297 475 297 478.866 297 482 300.134 482 304 481.996 307.864 478.864 310.996 475 311Z"/><path d="M450 271C445.418 271.002 441.568 274.446 441.059 279L430 279 430 281 441.059 281C441.627 285.938 446.091 289.48 451.029 288.912 455.185 288.434 458.463 285.156 458.941 281L498 281 498 279 458.941 279C458.432 274.446 454.582 271.002 450 271ZM450 287C446.134 287 443 283.866 443 280 443 276.134 446.134 273 450 273 453.866 273 457 276.134 457 280 456.996 283.864 453.864 286.996 450 287Z"/></g></svg>